<?xml version="1.0" standalone="no"?>
<!DOCTYPE svg PUBLIC "-//W3C//DTD SVG 20010904//EN"
 "http://www.w3.org/TR/2001/REC-SVG-20010904/DTD/svg10.dtd">
<svg version="1.0" xmlns="http://www.w3.org/2000/svg"
 width="468.000000pt" height="563.000000pt" viewBox="0 0 468.000000 563.000000"
 preserveAspectRatio="xMidYMid meet">

<g transform="translate(0.000000,563.000000) scale(0.100000,-0.100000)"
fill="#000000" stroke="none">
<path d="M540 5353 l0 -50 73 -6 c162 -14 231 -56 264 -163 17 -56 18 -129 18
-1419 0 -1290 -1 -1363 -18 -1419 -33 -107 -102 -149 -264 -163 l-73 -6 0 -49
0 -49 48 5 c93 10 826 17 1038 10 l216 -7 -4 -156 -3 -156 34 -3 c43 -4 48 1
66 72 33 125 66 133 219 52 243 -129 451 -169 766 -146 324 23 542 111 719
291 76 77 139 188 168 294 24 90 24 340 -1 420 -45 146 -132 281 -255 397
-100 94 -173 149 -436 328 -437 298 -505 351 -594 467 -74 97 -108 247 -86
377 37 214 202 335 459 336 44 0 77 -2 74 -5 -3 -3 -33 -10 -68 -16 -131 -21
-255 -111 -306 -222 -27 -58 -29 -70 -28 -187 0 -118 2 -129 31 -191 52 -113
118 -188 260 -297 29 -22 50 -31 62 -27 27 8 138 109 189 171 115 140 194 343
215 554 2 23 6 20 44 -30 102 -134 180 -348 209 -567 l7 -53 42 0 42 0 7 373
c3 204 9 416 12 470 l7 97 -45 0 -45 0 -13 -59 c-7 -33 -20 -73 -30 -89 -33
-54 -54 -50 -232 41 -90 46 -197 93 -238 105 l-75 22 71 -5 c40 -3 104 -16
143 -29 84 -28 84 -29 48 79 -96 293 -393 520 -779 599 -188 39 -210 39 -1063
41 -462 0 -852 4 -867 9 -28 8 -28 8 -28 -41z m1568 -68 c151 -36 258 -122
322 -257 38 -81 72 -197 85 -289 l7 -47 -34 -7 c-139 -28 -300 -104 -400 -189
-171 -146 -250 -343 -235 -586 10 -148 40 -240 126 -382 l23 -38 -177 0 -176
0 3 798 c3 791 4 798 25 862 26 77 62 116 124 135 59 18 229 18 307 0z m17
-1926 c56 -57 227 -184 445 -329 423 -282 552 -414 607 -619 20 -75 20 -232 0
-298 -72 -238 -329 -358 -644 -298 -275 52 -456 278 -548 685 -13 58 -29 156
-36 218 l-12 113 -46 -3 -46 -3 -3 -328 -2 -328 -23 6 c-59 17 -128 98 -148
172 -8 34 -13 195 -16 545 l-4 498 168 3 c92 1 191 4 218 5 48 2 54 -1 90 -39z"/>
<path d="M2350 2643 c0 -5 13 -17 30 -28 33 -22 56 -64 65 -115 3 -19 15 -48
28 -63 l22 -29 -24 -52 c-14 -29 -35 -57 -46 -62 -12 -5 -26 -28 -36 -58 -11
-35 -25 -56 -47 -70 -54 -35 -40 -50 15 -16 23 13 36 32 44 62 19 67 50 96 41
40 -2 -16 1 -45 6 -66 9 -30 7 -42 -6 -66 -14 -25 -15 -35 -4 -74 15 -56 15
-101 2 -126 -6 -11 -6 -21 -1 -24 16 -10 34 63 26 108 -4 22 -9 55 -12 72 -6
38 11 52 35 30 65 -58 199 -60 259 -4 22 20 24 21 40 5 15 -14 15 -22 5 -50
-16 -46 -15 -129 2 -153 13 -17 14 -13 9 38 -3 34 -1 76 7 103 12 42 11 49 -7
73 -14 19 -18 33 -12 47 4 11 8 42 8 68 1 64 20 58 42 -13 13 -42 23 -56 50
-71 38 -20 49 -23 49 -11 0 5 -15 15 -33 24 -27 13 -36 26 -50 72 -12 37 -25
60 -38 64 -11 4 -30 30 -43 58 l-23 50 22 33 c13 18 26 53 30 79 5 37 16 55
47 85 43 41 46 59 4 32 -33 -22 -62 -70 -71 -116 -4 -20 -16 -51 -26 -69 -16
-26 -22 -30 -34 -20 -8 7 -15 21 -15 31 0 9 -7 24 -15 33 -8 8 -15 21 -15 30
0 8 -9 21 -20 29 -17 12 -18 16 -5 34 8 11 28 26 45 33 29 12 41 30 20 30 -22
0 -70 -31 -81 -51 l-11 -21 -26 25 c-44 40 -92 60 -92 37 0 -5 7 -10 15 -10
24 0 82 -58 68 -68 -16 -10 -63 -99 -63 -118 0 -21 -27 -17 -44 8 -9 12 -19
38 -22 58 -9 50 -28 83 -64 114 -31 26 -50 33 -50 19z m307 -118 c2 -7 -12 -9
-37 -7 -22 2 -37 8 -34 14 8 12 66 6 71 -7z m22 -88 c13 -6 38 -29 54 -50 l31
-38 -21 -21 -22 -21 -29 31 c-41 44 -91 44 -134 2 -29 -29 -31 -30 -54 -15
-24 16 -24 16 -7 47 39 66 122 96 182 65z m-52 -171 c49 0 70 6 101 27 47 31
52 25 52 -54 0 -103 -55 -158 -157 -159 -113 0 -174 73 -158 191 l7 49 46 -28
c38 -22 59 -27 109 -26z"/>
<path d="M1788 1300 c-109 -33 -161 -171 -105 -280 29 -57 64 -81 123 -86 27
-2 40 -1 29 2 -54 15 -85 82 -85 181 0 104 38 170 106 183 l39 8 -40 0 c-22 0
-52 -3 -67 -8z"/>
<path d="M2593 1295 c-37 -16 -53 -42 -53 -87 0 -41 18 -63 93 -117 32 -23 63
-53 69 -66 14 -32 3 -69 -24 -83 -23 -10 -23 -11 5 -11 59 -2 107 45 107 104
0 32 -41 78 -110 125 -57 38 -70 56 -70 88 0 28 16 44 51 52 l34 8 -35 1 c-19
0 -49 -6 -67 -14z"/>
<path d="M3363 1291 c-156 -71 -127 -339 39 -358 40 -4 41 -4 19 9 -60 33 -88
126 -71 232 15 95 67 144 124 118 92 -42 94 -308 2 -348 l-31 -13 28 -1 c55 0
114 46 142 112 69 166 -89 322 -252 249z"/>
<path d="M640 1293 c27 -11 30 -26 30 -178 0 -152 -3 -167 -30 -178 -8 -3 28
-5 80 -5 53 0 82 3 65 7 -29 6 -30 8 -33 74 l-3 67 38 0 c48 0 118 32 133 60
6 12 12 33 12 48 3 85 -47 112 -202 111 -58 0 -98 -3 -90 -6z m184 -16 c11 -8
20 -31 23 -60 10 -82 -14 -127 -68 -127 l-29 0 0 93 c0 52 3 97 7 100 11 11
48 8 67 -6z"/>
<path d="M977 1290 c20 -8 21 -16 25 -155 l3 -147 33 -29 c27 -24 41 -29 87
-29 114 0 135 32 135 209 0 108 2 123 20 141 l20 20 -52 0 c-49 0 -51 -1 -28
-13 25 -13 25 -13 25 -155 0 -130 -2 -143 -21 -162 -30 -31 -84 -36 -114 -12
-24 20 -25 24 -28 171 -3 150 -3 151 20 160 17 7 0 10 -62 10 -58 0 -78 -3
-63 -9z"/>
<path d="M1348 1290 c22 -9 22 -13 22 -175 0 -162 0 -166 -22 -175 -16 -6 26
-9 125 -9 l147 -1 0 68 -1 67 -14 -40 c-19 -55 -57 -85 -104 -85 -26 0 -41 5
-45 16 -3 9 -6 80 -6 158 0 144 5 167 40 179 8 3 -25 5 -75 6 -63 0 -83 -3
-67 -9z"/>
<path d="M1928 1275 c17 -14 35 -42 40 -63 9 -35 10 -34 11 28 0 49 -2 61 -10
47 -9 -16 -12 -16 -32 -2 -35 24 -41 17 -9 -10z"/>
<path d="M2167 1258 c-29 -82 -29 -84 -13 -58 8 14 15 22 16 18 0 -4 11 -37
25 -73 l24 -65 -55 0 c-51 0 -55 2 -49 20 3 11 5 20 2 20 -2 0 -16 -33 -32
-72 -15 -40 -37 -83 -48 -95 l-20 -23 54 1 c40 0 49 2 33 9 -31 12 -35 33 -18
85 l16 45 59 0 c58 0 59 0 74 -37 29 -69 29 -82 4 -92 -18 -7 -4 -10 59 -10
l83 -1 -20 28 c-11 15 -48 98 -81 185 -69 176 -86 193 -113 115z"/>
<path d="M2721 1276 c13 -13 29 -39 35 -58 12 -33 12 -32 13 26 1 46 -2 56
-12 48 -8 -7 -18 -7 -27 -2 -28 18 -32 10 -9 -14z"/>
<path d="M2848 1290 c22 -9 22 -13 22 -175 0 -162 0 -166 -22 -175 -17 -6 2
-9 62 -9 47 1 78 3 70 6 -25 10 -30 25 -30 101 l0 72 75 0 75 0 0 -72 c0 -76
-5 -91 -30 -101 -8 -3 23 -5 70 -6 60 0 79 3 63 9 -23 9 -23 13 -23 175 0 162
0 166 23 175 16 6 -3 9 -63 9 -47 -1 -78 -3 -70 -6 25 -10 30 -25 30 -100 l0
-73 -75 0 -75 0 0 73 c0 75 5 90 30 100 8 3 -23 5 -70 6 -60 0 -79 -3 -62 -9z"/>
<path d="M3696 1286 c17 -13 19 -29 21 -160 1 -81 0 -153 -4 -162 -3 -9 -15
-20 -27 -24 -14 -6 12 -8 74 -8 52 0 85 3 72 5 -28 6 -44 43 -40 97 l3 41 51
6 c60 8 85 20 113 55 25 32 27 81 5 113 -27 38 -74 51 -186 51 -90 0 -100 -2
-82 -14z m180 -17 c14 -15 19 -36 19 -79 0 -70 -21 -100 -70 -100 l-32 0 -1
83 c0 45 4 90 9 100 13 23 52 22 75 -4z"/>
<path d="M2126 1155 c-9 -26 -7 -32 5 -12 6 10 9 21 6 23 -2 3 -7 -2 -11 -11z"/>
<path d="M1868 1083 c30 -6 43 -34 40 -85 -3 -34 -8 -45 -28 -55 -40 -20 3
-16 46 4 35 17 36 17 50 -2 13 -17 14 -11 14 51 0 41 5 75 12 82 9 9 -7 12
-72 11 -47 -1 -75 -4 -62 -6z"/>
<path d="M2540 1025 c-1 -22 -4 -53 -6 -69 -4 -24 -3 -27 9 -18 10 9 22 9 46
1 18 -6 35 -9 38 -5 4 3 0 6 -9 6 -23 0 -57 42 -67 85 l-9 40 -2 -40z"/>
<path d="M714 547 c-71 -62 18 -179 92 -122 18 14 17 14 -10 5 -39 -14 -84 4
-92 36 -16 62 32 106 92 84 27 -9 28 -9 10 5 -28 22 -61 19 -92 -8z"/>
<path d="M975 545 c-73 -72 28 -178 109 -114 20 16 26 29 26 59 0 72 -84 106
-135 55z m99 -6 c17 -13 26 -30 26 -49 0 -32 -39 -70 -72 -70 -25 0 -68 44
-68 70 0 26 43 70 68 70 11 0 31 -9 46 -21z"/>
<path d="M1262 488 l1 -83 6 65 6 65 22 -40 c40 -72 37 -71 74 -13 l34 53 6
-65 6 -65 1 83 c1 51 -2 81 -8 77 -5 -3 -21 -28 -36 -55 -15 -28 -31 -50 -36
-50 -4 0 -22 25 -39 55 -17 30 -33 55 -35 55 -2 0 -3 -37 -2 -82z"/>
<path d="M1581 488 c1 -46 4 -71 6 -55 4 24 9 27 42 27 40 0 71 23 71 53 0 31
-37 57 -80 57 l-40 0 1 -82z m80 62 c24 -13 26 -65 3 -74 -9 -3 -29 -6 -45 -6
-28 0 -29 2 -29 45 0 42 2 45 26 45 14 0 34 -5 45 -10z"/>
<path d="M1840 490 c0 -47 4 -80 10 -80 6 0 10 11 10 25 0 36 46 35 77 -2 12
-16 22 -23 23 -17 0 6 -7 17 -15 24 -14 12 -14 15 1 31 22 24 21 69 -2 86 -10
7 -37 13 -61 13 l-43 0 0 -80z m91 60 c21 -12 25 -50 7 -68 -7 -7 -27 -12 -45
-12 -32 0 -33 1 -33 45 0 42 2 45 26 45 14 0 34 -5 45 -10z"/>
<path d="M2118 490 c-20 -44 -32 -80 -27 -80 5 0 11 11 15 25 6 22 11 25 55
25 27 0 49 -4 49 -8 0 -5 7 -17 15 -28 14 -17 14 -16 1 16 -31 77 -57 130 -64
130 -4 0 -24 -36 -44 -80z m82 -12 c0 -5 -18 -8 -40 -8 l-40 0 21 42 21 42 19
-35 c10 -18 18 -37 19 -41z"/>
<path d="M2541 519 c17 -27 32 -63 33 -80 1 -40 16 -37 16 4 0 18 4 37 8 43
16 17 54 84 48 84 -3 0 -19 -21 -35 -47 l-29 -47 -29 47 c-15 26 -31 47 -35
47 -4 0 6 -23 23 -51z"/>
<path d="M2920 566 c0 -10 70 -156 75 -156 8 0 76 152 70 158 -2 3 -18 -25
-34 -62 -17 -36 -33 -66 -35 -66 -3 0 -19 29 -35 65 -25 54 -41 79 -41 61z"/>
<path d="M3200 490 l0 -80 58 2 c56 2 56 2 10 5 -47 4 -48 5 -48 38 0 33 2 34
43 38 l42 4 -42 1 c-40 2 -43 4 -43 31 0 28 2 30 48 34 46 3 46 3 -10 5 l-58
2 0 -80z"/>
<path d="M3462 488 c2 -77 2 -78 5 -20 2 34 7 62 11 62 4 -1 27 -27 52 -60 25
-33 48 -59 53 -60 4 0 7 36 7 80 0 44 -4 80 -9 80 -5 0 -8 -25 -7 -56 1 -30
-1 -57 -5 -60 -3 -2 -28 23 -53 56 -26 33 -49 60 -52 60 -2 0 -3 -37 -2 -82z"/>
<path d="M3747 563 l32 -4 4 -77 3 -77 2 77 2 77 33 4 c17 2 1 4 -38 4 -38 0
-56 -2 -38 -4z"/>
<path d="M3988 490 c-20 -44 -32 -80 -27 -80 5 0 11 11 15 25 6 22 11 25 55
25 27 0 49 -4 49 -8 0 -5 7 -17 15 -28 14 -17 14 -16 1 16 -31 77 -57 130 -64
130 -4 0 -24 -36 -44 -80z m82 -12 c0 -5 -18 -8 -40 -8 l-40 0 21 42 21 42 19
-35 c10 -18 18 -37 19 -41z"/>
</g>
</svg>
