<svg width="517" height="161" viewBox="0 0 517 161" fill="none" xmlns="http://www.w3.org/2000/svg">
<path d="M57.6245 60.304C57.6245 64.208 56.7285 67.792 54.9365 71.056C53.1445 74.256 50.3925 76.848 46.6805 78.832C42.9685 80.816 38.3605 81.808 32.8565 81.808H22.6805V106H6.2645V38.608H32.8565C38.2325 38.608 42.7765 39.536 46.4885 41.392C50.2005 43.248 52.9845 45.808 54.8405 49.072C56.6965 52.336 57.6245 56.08 57.6245 60.304ZM31.6085 68.752C34.7445 68.752 37.0805 68.016 38.6165 66.544C40.1525 65.072 40.9205 62.992 40.9205 60.304C40.9205 57.616 40.1525 55.536 38.6165 54.064C37.0805 52.592 34.7445 51.856 31.6085 51.856H22.6805V68.752H31.6085ZM119.067 52.432V106H102.651V98.704C100.987 101.072 98.7148 102.992 95.8348 104.464C93.0188 105.872 89.8828 106.576 86.4268 106.576C82.3308 106.576 78.7148 105.68 75.5788 103.888C72.4428 102.032 70.0108 99.376 68.2828 95.92C66.5548 92.464 65.6908 88.4 65.6908 83.728V52.432H82.0108V81.52C82.0108 85.104 82.9388 87.888 84.7948 89.872C86.6508 91.856 89.1468 92.848 92.2828 92.848C95.4828 92.848 98.0108 91.856 99.8668 89.872C101.723 87.888 102.651 85.104 102.651 81.52V52.432H119.067ZM147.274 34.96V106H130.858V34.96H147.274ZM179.523 51.664C183.299 51.664 186.595 52.432 189.411 53.968C192.291 55.504 194.499 57.52 196.035 60.016V52.432H212.451V105.904C212.451 110.832 211.459 115.28 209.475 119.248C207.555 123.28 204.579 126.48 200.547 128.848C196.579 131.216 191.619 132.4 185.667 132.4C177.731 132.4 171.299 130.512 166.371 126.736C161.443 123.024 158.627 117.968 157.923 111.568H174.147C174.659 113.616 175.875 115.216 177.795 116.368C179.715 117.584 182.083 118.192 184.899 118.192C188.291 118.192 190.979 117.2 192.963 115.216C195.011 113.296 196.035 110.192 196.035 105.904V98.32C194.435 100.816 192.227 102.864 189.411 104.464C186.595 106 183.299 106.768 179.523 106.768C175.107 106.768 171.107 105.648 167.523 103.408C163.939 101.104 161.091 97.872 158.979 93.712C156.931 89.488 155.907 84.624 155.907 79.12C155.907 73.616 156.931 68.784 158.979 64.624C161.091 60.464 163.939 57.264 167.523 55.024C171.107 52.784 175.107 51.664 179.523 51.664ZM196.035 79.216C196.035 75.12 194.883 71.888 192.579 69.52C190.339 67.152 187.587 65.968 184.323 65.968C181.059 65.968 178.275 67.152 175.971 69.52C173.731 71.824 172.611 75.024 172.611 79.12C172.611 83.216 173.731 86.48 175.971 88.912C178.275 91.28 181.059 92.464 184.323 92.464C187.587 92.464 190.339 91.28 192.579 88.912C194.883 86.544 196.035 83.312 196.035 79.216ZM221.063 79.12C221.063 73.616 222.087 68.784 224.135 64.624C226.247 60.464 229.095 57.264 232.679 55.024C236.263 52.784 240.263 51.664 244.679 51.664C248.455 51.664 251.751 52.432 254.567 53.968C257.447 55.504 259.655 57.52 261.191 60.016V52.432H277.607V106H261.191V98.416C259.591 100.912 257.351 102.928 254.471 104.464C251.655 106 248.359 106.768 244.583 106.768C240.231 106.768 236.263 105.648 232.679 103.408C229.095 101.104 226.247 97.872 224.135 93.712C222.087 89.488 221.063 84.624 221.063 79.12ZM261.191 79.216C261.191 75.12 260.039 71.888 257.735 69.52C255.495 67.152 252.743 65.968 249.479 65.968C246.215 65.968 243.431 67.152 241.127 69.52C238.887 71.824 237.767 75.024 237.767 79.12C237.767 83.216 238.887 86.48 241.127 88.912C243.431 91.28 246.215 92.464 249.479 92.464C252.743 92.464 255.495 91.28 257.735 88.912C260.039 86.544 261.191 83.312 261.191 79.216Z" fill="white"/>
<path d="M311.563 106.672C307.147 106.672 303.243 105.904 299.851 104.368C296.523 102.832 293.899 100.688 291.979 97.936C290.059 95.184 289.035 92.112 288.907 88.72H296.011C296.331 91.984 297.771 94.864 300.331 97.36C302.891 99.792 306.635 101.008 311.563 101.008C316.107 101.008 319.691 99.856 322.315 97.552C325.003 95.184 326.347 92.208 326.347 88.624C326.347 85.744 325.611 83.44 324.139 81.712C322.667 79.92 320.843 78.608 318.667 77.776C316.491 76.88 313.483 75.92 309.643 74.896C305.163 73.68 301.611 72.496 298.987 71.344C296.363 70.192 294.123 68.4 292.267 65.968C290.411 63.536 289.483 60.24 289.483 56.08C289.483 52.624 290.379 49.552 292.171 46.864C293.963 44.112 296.491 41.968 299.755 40.432C303.019 38.896 306.763 38.128 310.987 38.128C317.195 38.128 322.187 39.664 325.963 42.736C329.803 45.744 332.011 49.648 332.587 54.448H325.291C324.843 51.696 323.339 49.264 320.779 47.152C318.219 44.976 314.763 43.888 310.411 43.888C306.379 43.888 303.019 44.976 300.331 47.152C297.643 49.264 296.299 52.176 296.299 55.888C296.299 58.704 297.035 60.976 298.507 62.704C299.979 64.432 301.803 65.744 303.979 66.64C306.219 67.536 309.227 68.496 313.003 69.52C317.355 70.736 320.875 71.952 323.563 73.168C326.251 74.32 328.523 76.112 330.379 78.544C332.235 80.976 333.163 84.24 333.163 88.336C333.163 91.472 332.331 94.448 330.667 97.264C329.003 100.08 326.539 102.352 323.275 104.08C320.011 105.808 316.107 106.672 311.563 106.672ZM371.109 52.624C375.077 52.624 378.629 53.456 381.765 55.12C384.965 56.784 387.461 59.344 389.253 62.8C391.109 66.192 392.037 70.352 392.037 75.28V106H385.413V76.048C385.413 70.352 383.973 66 381.093 62.992C378.277 59.984 374.405 58.48 369.477 58.48C364.421 58.48 360.389 60.08 357.381 63.28C354.373 66.48 352.869 71.184 352.869 77.392V106H346.149V34.96H352.869V62.512C354.533 59.376 356.965 56.944 360.165 55.216C363.429 53.488 367.077 52.624 371.109 52.624ZM466.21 65.104C467.874 61.584 470.498 58.672 474.082 56.368C477.73 54 482.05 52.816 487.042 52.816C491.778 52.816 496.034 53.936 499.81 56.176C503.65 58.352 506.626 61.488 508.738 65.584C510.914 69.616 512.002 74.32 512.002 79.696C512.002 85.072 510.914 89.808 508.738 93.904C506.626 98 503.65 101.168 499.81 103.408C496.034 105.648 491.778 106.768 487.042 106.768C482.114 106.768 477.826 105.616 474.178 103.312C470.53 100.944 467.874 98 466.21 94.48V130.768H459.586V53.584H466.21V65.104ZM505.186 79.696C505.186 75.344 504.322 71.6 502.594 68.464C500.93 65.264 498.626 62.832 495.682 61.168C492.738 59.504 489.41 58.672 485.698 58.672C482.114 58.672 478.818 59.536 475.81 61.264C472.866 62.992 470.53 65.456 468.802 68.656C467.074 71.856 466.21 75.568 466.21 79.792C466.21 84.016 467.074 87.728 468.802 90.928C470.53 94.128 472.866 96.592 475.81 98.32C478.818 100.048 482.114 100.912 485.698 100.912C489.41 100.912 492.738 100.08 495.682 98.416C498.626 96.688 500.93 94.224 502.594 91.024C504.322 87.76 505.186 83.984 505.186 79.696Z" fill="#E5E5E5" fill-opacity="0.92"/>
<path d="M348.688 149.416C348.688 148.328 348.933 147.352 349.424 146.488C349.915 145.613 350.581 144.931 351.424 144.44C352.277 143.949 353.221 143.704 354.256 143.704C355.472 143.704 356.533 143.997 357.44 144.584C358.347 145.171 359.008 146.003 359.424 147.08H357.68C357.371 146.408 356.923 145.891 356.336 145.528C355.76 145.165 355.067 144.984 354.256 144.984C353.477 144.984 352.779 145.165 352.16 145.528C351.541 145.891 351.056 146.408 350.704 147.08C350.352 147.741 350.176 148.52 350.176 149.416C350.176 150.301 350.352 151.08 350.704 151.752C351.056 152.413 351.541 152.925 352.16 153.288C352.779 153.651 353.477 153.832 354.256 153.832C355.067 153.832 355.76 153.656 356.336 153.304C356.923 152.941 357.371 152.424 357.68 151.752H359.424C359.008 152.819 358.347 153.645 357.44 154.232C356.533 154.808 355.472 155.096 354.256 155.096C353.221 155.096 352.277 154.856 351.424 154.376C350.581 153.885 349.915 153.208 349.424 152.344C348.933 151.48 348.688 150.504 348.688 149.416ZM366.647 155.112C365.613 155.112 364.669 154.872 363.815 154.392C362.962 153.901 362.285 153.224 361.783 152.36C361.293 151.485 361.047 150.504 361.047 149.416C361.047 148.328 361.293 147.352 361.783 146.488C362.285 145.613 362.962 144.936 363.815 144.456C364.669 143.965 365.613 143.72 366.647 143.72C367.693 143.72 368.642 143.965 369.495 144.456C370.349 144.936 371.021 145.608 371.511 146.472C372.002 147.336 372.247 148.317 372.247 149.416C372.247 150.515 372.002 151.496 371.511 152.36C371.021 153.224 370.349 153.901 369.495 154.392C368.642 154.872 367.693 155.112 366.647 155.112ZM366.647 153.848C367.426 153.848 368.125 153.667 368.743 153.304C369.373 152.941 369.863 152.424 370.215 151.752C370.578 151.08 370.759 150.301 370.759 149.416C370.759 148.52 370.578 147.741 370.215 147.08C369.863 146.408 369.378 145.891 368.759 145.528C368.141 145.165 367.437 144.984 366.647 144.984C365.858 144.984 365.154 145.165 364.535 145.528C363.917 145.891 363.426 146.408 363.063 147.08C362.711 147.741 362.535 148.52 362.535 149.416C362.535 150.301 362.711 151.08 363.063 151.752C363.426 152.424 363.917 152.941 364.535 153.304C365.165 153.667 365.869 153.848 366.647 153.848ZM385.482 143.928V155H384.026V146.744L380.346 155H379.322L375.626 146.728V155H374.17V143.928H375.738L379.834 153.08L383.93 143.928H385.482ZM395.407 147.112C395.407 148.04 395.087 148.813 394.447 149.432C393.817 150.04 392.852 150.344 391.551 150.344H389.407V155H387.951V143.848H391.551C392.809 143.848 393.764 144.152 394.415 144.76C395.076 145.368 395.407 146.152 395.407 147.112ZM391.551 149.144C392.361 149.144 392.959 148.968 393.343 148.616C393.727 148.264 393.919 147.763 393.919 147.112C393.919 145.736 393.129 145.048 391.551 145.048H389.407V149.144H391.551ZM403.088 155L400.432 150.44H398.672V155H397.216V143.848H400.816C401.659 143.848 402.368 143.992 402.944 144.28C403.531 144.568 403.968 144.957 404.256 145.448C404.544 145.939 404.688 146.499 404.688 147.128C404.688 147.896 404.464 148.573 404.016 149.16C403.579 149.747 402.918 150.136 402.032 150.328L404.832 155H403.088ZM398.672 149.272H400.816C401.606 149.272 402.198 149.08 402.592 148.696C402.987 148.301 403.184 147.779 403.184 147.128C403.184 146.467 402.987 145.955 402.592 145.592C402.208 145.229 401.616 145.048 400.816 145.048H398.672V149.272ZM413.543 152.52H408.679L407.783 155H406.247L410.279 143.912H411.959L415.975 155H414.439L413.543 152.52ZM413.127 151.336L411.111 145.704L409.095 151.336H413.127ZM429.806 143.848L426.174 150.792V155H424.718V150.792L421.07 143.848H422.686L425.438 149.496L428.19 143.848H429.806ZM444.823 143.848L440.615 155H438.935L434.727 143.848H436.279L439.783 153.464L443.287 143.848H444.823ZM447.876 145.032V148.76H451.94V149.96H447.876V153.8H452.42V155H446.42V143.832H452.42V145.032H447.876ZM463.391 155H461.935L456.079 146.12V155H454.623V143.832H456.079L461.935 152.696V143.832H463.391V155ZM472.737 143.848V145.032H469.697V155H468.241V145.032H465.185V143.848H472.737ZM481.121 152.52H476.257L475.361 155H473.825L477.857 143.912H479.537L483.553 155H482.017L481.121 152.52ZM480.705 151.336L478.689 145.704L476.673 151.336H480.705Z" fill="white"/>
<path d="M35 149H316" stroke="white"/>
<path d="M35 3H482" stroke="white"/>
<path d="M405.387 59.2422C406.099 57.937 407.467 57.125 408.953 57.125H442.047C443.533 57.125 444.901 57.937 445.613 59.2422L452.583 72.0208H447.167V100.458C447.167 103.45 444.742 105.875 441.75 105.875H430.917V96.3958C430.917 94.1522 429.098 92.3333 426.854 92.3333H424.146C421.902 92.3333 420.083 94.1522 420.083 96.3958V105.875H409.25C406.258 105.875 403.833 103.45 403.833 100.458V72.0208H398.417L405.387 59.2422Z" fill="#E5E5E5"/>
<path d="M416.653 75.648L416.698 75.5387C417.17 76.7203 417.88 77.8061 418.797 78.7233C420.575 80.501 422.986 81.4997 425.5 81.4997C428.014 81.4997 430.425 80.501 432.203 78.7233C433.12 77.8061 433.83 76.7203 434.302 75.5387L434.347 75.648C434.823 76.7981 435.521 77.8431 436.401 78.7233C437.282 79.6035 438.327 80.3017 439.477 80.7781C440.627 81.2545 441.859 81.4997 443.104 81.4997C444.349 81.4997 445.582 81.2545 446.732 80.7781C447.882 80.3017 448.927 79.6035 449.807 78.7233C450.687 77.8431 451.385 76.7981 451.862 75.648C452.338 74.498 452.583 73.2653 452.583 72.0205H398.417C398.417 73.2653 398.662 74.498 399.138 75.648C399.615 76.7981 400.313 77.8431 401.193 78.7233C402.073 79.6035 403.118 80.3017 404.268 80.7781C405.418 81.2545 406.651 81.4997 407.896 81.4997C409.141 81.4997 410.373 81.2545 411.523 80.7781C412.673 80.3017 413.718 79.6035 414.599 78.7233C415.479 77.8431 416.177 76.7981 416.653 75.648Z" fill="#314C53"/>
<path d="M420.083 96.3958C420.083 94.1522 421.902 92.3333 424.146 92.3333H426.854C429.098 92.3333 430.917 94.1522 430.917 96.3958V105.875H420.083V96.3958Z" fill="#314C53"/>
</svg>
